<svg xmlns="http://www.w3.org/2000/svg" xmlns:xlink="http://www.w3.org/1999/xlink" viewBox="0 0 780 1688" width="780"
     height="1688" preserveAspectRatio="xMidYMid meet"
     style="width: 100%; height: 100%; transform: translate3d(0px, 0px, 0px); content-visibility: visible;">
    <defs>
        <clipPath id="__lottie_element_2">
            <rect width="780" height="1688" x="0" y="0"></rect>
        </clipPath>
        <clipPath id="__lottie_element_32">
            <path d="M0,0 L1920,0 L1920,1080 L0,1080z"></path>
        </clipPath>
        <mask id="__lottie_element_33">
            <path fill="#ffffff" clip-rule="nonzero"
                  d=" M1407.115966796875,520.0260009765625 C1407.115966796875,520.0260009765625 1403.77001953125,523.3720092773438 1403.77001953125,523.3720092773438 C1403.77001953125,523.3720092773438 1409.8929443359375,529.5189819335938 1409.8929443359375,529.5189819335938 C1409.8929443359375,529.5189819335938 1392.876953125,529.5189819335938 1392.876953125,529.5189819335938 C1392.876953125,529.5189819335938 1392.876953125,534.2650146484375 1392.876953125,534.2650146484375 C1392.876953125,534.2650146484375 1409.8929443359375,534.2650146484375 1409.8929443359375,534.2650146484375 C1409.8929443359375,534.2650146484375 1403.77001953125,540.4110107421875 1403.77001953125,540.4110107421875 C1403.77001953125,540.4110107421875 1407.115966796875,543.7579956054688 1407.115966796875,543.7579956054688 C1407.115966796875,543.7579956054688 1418.9830322265625,531.8920288085938 1418.9830322265625,531.8920288085938 C1418.9830322265625,531.8920288085938 1407.115966796875,520.0260009765625 1407.115966796875,520.0260009765625"
                  fill-opacity="1"></path>
            <path fill="#ffffff" clip-rule="nonzero"
                  d=" M1383.384033203125,557.9970092773438 C1383.384033203125,557.9970092773438 1386.72998046875,554.6510009765625 1386.72998046875,554.6510009765625 C1386.72998046875,554.6510009765625 1380.6070556640625,548.5040283203125 1380.6070556640625,548.5040283203125 C1380.6070556640625,548.5040283203125 1397.6240234375,548.5040283203125 1397.6240234375,548.5040283203125 C1397.6240234375,548.5040283203125 1397.6240234375,543.7579956054688 1397.6240234375,543.7579956054688 C1397.6240234375,543.7579956054688 1380.6070556640625,543.7579956054688 1380.6070556640625,543.7579956054688 C1380.6070556640625,543.7579956054688 1386.72998046875,537.6110229492188 1386.72998046875,537.6110229492188 C1386.72998046875,537.6110229492188 1383.384033203125,534.2650146484375 1383.384033203125,534.2650146484375 C1383.384033203125,534.2650146484375 1371.5179443359375,546.1309814453125 1371.5179443359375,546.1309814453125 C1371.5179443359375,546.1309814453125 1383.384033203125,557.9970092773438 1383.384033203125,557.9970092773438"
                  fill-opacity="1"></path>
        </mask>
        <clipPath id="__lottie_element_42">
            <path d="M0,0 L1920,0 L1920,1080 L0,1080z"></path>
        </clipPath>
        <clipPath id="__lottie_element_43">
            <path fill="#ffffff" clip-rule="nonzero"
                  d=" M1099.468017578125,531.614990234375 C1094.4200439453125,531.614990234375 1077.0179443359375,531.5399780273438 1072.93603515625,531.5399780273438 C1067.6729736328125,531.5399780273438 1066.781005859375,532.1669921875 1066.781005859375,537.4329833984375 C1066.781005859375,541.8350219726562 1066.843017578125,561.06298828125 1066.843017578125,564.3930053710938 C1066.843017578125,567.7230224609375 1067.3489990234375,569.6589965820312 1071.699951171875,569.6589965820312 C1071.862060546875,569.6589965820312 1071.64794921875,562.5659790039062 1071.64794921875,562.5659790039062 C1071.64794921875,562.5659790039062 1078.7900390625,553.5969848632812 1078.7900390625,553.5969848632812 C1078.7900390625,553.5969848632812 1083.677978515625,559.5590209960938 1083.677978515625,559.5590209960938 C1083.677978515625,559.5590209960938 1091.2509765625,550.4819946289062 1091.2509765625,550.4819946289062 C1091.2509765625,550.4819946289062 1099.949951171875,563.2119750976562 1099.949951171875,563.2119750976562 C1099.949951171875,563.2119750976562 1071.7540283203125,563.3189697265625 1071.7540283203125,563.3189697265625 C1071.7540283203125,563.3189697265625 1071.8079833984375,569.6580200195312 1071.8079833984375,569.6580200195312 C1071.8079833984375,569.6580200195312 1096.1390380859375,569.656982421875 1100.113037109375,569.656982421875 C1104.0870361328125,569.656982421875 1105.2330322265625,568.593994140625 1105.2330322265625,564.344970703125 C1105.2330322265625,560.0960083007812 1105.136962890625,540.9920043945312 1105.136962890625,537.1170043945312 C1105.136962890625,533.2420043945312 1104.5159912109375,531.614990234375 1099.468017578125,531.614990234375"
                  fill-opacity="1"></path>
        </clipPath>
        <clipPath id="__lottie_element_52">
            <path d="M0,0 L1920,0 L1920,1080 L0,1080z"></path>
        </clipPath>
        <mask id="__lottie_element_53">
            <path fill="#ffffff" clip-rule="nonzero"
                  d=" M912.9089965820312,623.8359985351562 C909.5380249023438,623.8359985351562 906.8179931640625,626.5570068359375 906.8179931640625,629.927978515625 C906.8179931640625,632.5880126953125 904.4630126953125,633.989013671875 902.7570190429688,633.989013671875 C904.625,636.4660034179688 907.81298828125,638.0499877929688 910.8790283203125,638.0499877929688 C915.3660278320312,638.0499877929688 919.0009765625,634.4149780273438 919.0009765625,629.927978515625 C919.0009765625,626.5570068359375 916.280029296875,623.8359985351562 912.9089965820312,623.8359985351562"
                  fill-opacity="1"></path>
            <path fill="#ffffff" clip-rule="nonzero"
                  d=" M940.7470092773438,604.8109741210938 C940.7470092773438,604.8109741210938 938.0269775390625,602.0900268554688 938.0269775390625,602.0900268554688 C937.2349853515625,601.2979736328125 935.9550170898438,601.2979736328125 935.1630249023438,602.0900268554688 C935.1630249023438,602.0900268554688 916.969970703125,620.2830200195312 916.969970703125,620.2830200195312 C916.969970703125,620.2830200195312 922.5540161132812,625.8670043945312 922.5540161132812,625.8670043945312 C922.5540161132812,625.8670043945312 940.7470092773438,607.6740112304688 940.7470092773438,607.6740112304688 C941.5390014648438,606.8820190429688 941.5390014648438,605.60302734375 940.7470092773438,604.8109741210938"
                  fill-opacity="1"></path>
        </mask>
        <clipPath id="__lottie_element_62">
            <path d="M0,0 L1920,0 L1920,1080 L0,1080z"></path>
        </clipPath>
        <mask id="__lottie_element_63">
            <path fill="#ffffff" clip-rule="nonzero"
                  d=" M435.822998046875,500.3169860839844 C435.822998046875,500.3169860839844 444.50299072265625,500.3169860839844 444.50299072265625,500.3169860839844 C444.50299072265625,500.3169860839844 444.50299072265625,517.677001953125 444.50299072265625,517.677001953125 C444.50299072265625,517.677001953125 435.822998046875,517.677001953125 435.822998046875,517.677001953125 C435.822998046875,517.677001953125 435.822998046875,500.3169860839844 435.822998046875,500.3169860839844"
                  fill-opacity="1"></path>
            <path fill="#ffffff" clip-rule="nonzero"
                  d=" M448.8429870605469,482.9580078125 C448.8429870605469,482.9580078125 457.5220031738281,482.9580078125 457.5220031738281,482.9580078125 C457.5220031738281,482.9580078125 457.5220031738281,517.677001953125 457.5220031738281,517.677001953125 C457.5220031738281,517.677001953125 448.8429870605469,517.677001953125 448.8429870605469,517.677001953125 C448.8429870605469,517.677001953125 448.8429870605469,482.9580078125 448.8429870605469,482.9580078125"
                  fill-opacity="1"></path>
            <path fill="#ffffff" clip-rule="nonzero"
                  d=" M461.86199951171875,493.8080139160156 C461.86199951171875,493.8080139160156 470.5419921875,493.8080139160156 470.5419921875,493.8080139160156 C470.5419921875,493.8080139160156 470.5419921875,517.677001953125 470.5419921875,517.677001953125 C470.5419921875,517.677001953125 461.86199951171875,517.677001953125 461.86199951171875,517.677001953125 C461.86199951171875,517.677001953125 461.86199951171875,493.8080139160156 461.86199951171875,493.8080139160156"
                  fill-opacity="1"></path>
        </mask>
    </defs>
    <g clip-path="url(#__lottie_element_2)">
        <g transform="matrix(1,0,0,1,2272.5,843.75)" opacity="1" style="display: block;">
            <g opacity="1" transform="matrix(1,0,0,1,0,0)">
                <path stroke-linecap="butt" stroke-linejoin="miter" fill-opacity="0" stroke-miterlimit="4"
                      stroke="rgb(0,0,0)" stroke-opacity="1" stroke-width="2.5" d="M0 0"></path>
            </g>
        </g>
        <g transform="matrix(1,0,0,1,390,845)" opacity="1" style="display: block;">
            <g opacity="1" transform="matrix(1,0,0,1,-0.25,-0.5)">
                <path stroke-linecap="butt" stroke-linejoin="miter" fill-opacity="0" stroke-miterlimit="4"
                      stroke="rgb(0,0,0)" stroke-opacity="1" stroke-width="2.5"
                      d=" M173.88600158691406,63.959999084472656 C36.1510009765625,63.959999084472656 -247.2899932861328,63.959999084472656 -247.2899932861328,63.959999084472656 C-282.58953857421875,63.959999084472656 -311.25,35.299522399902344 -311.25,0 C-311.25,0 -311.25,0 -311.25,0 C-311.25,-35.299522399902344 -282.58953857421875,-63.959999084472656 -247.29000854492188,-63.959999084472656 C-247.29000854492188,-63.959999084472656 247.29000854492188,-63.959999084472656 247.29000854492188,-63.959999084472656 C282.58953857421875,-63.959999084472656 311.25,-35.299522399902344 311.25,0 C311.25,0 311.25,0 311.25,0 C311.25,0 311.25,0 311.25,0 C311.25,35.299522399902344 282.58953857421875,63.959999084472656 247.29000854492188,63.959999084472656 C247.2899932861328,63.959999084472656 218.09300231933594,63.959999084472656 173.88600158691406,63.959999084472656"></path>
            </g>
        </g>
        <g transform="matrix(0,0,0,0,376.654052734375,2948.238037109375)" opacity="1" style="display: block;">
            <g opacity="1" transform="matrix(1,0,0,1,119.31999969482422,122.71800231933594)">
                <path fill="rgb(52,168,83)" fill-opacity="1"
                      d=" M0,-48 C26.491199493408203,-48 48,-26.491199493408203 48,0 C48,26.491199493408203 26.491199493408203,48 0,48 C-26.491199493408203,48 -48,26.491199493408203 -48,0 C-48,-26.491199493408203 -26.491199493408203,-48 0,-48z"></path>
                <path stroke-linecap="butt" stroke-linejoin="miter" fill-opacity="0" stroke-miterlimit="4"
                      stroke="rgb(255,255,255)" stroke-opacity="1" stroke-width="5"
                      d=" M0,-48 C26.491199493408203,-48 48,-26.491199493408203 48,0 C48,26.491199493408203 26.491199493408203,48 0,48 C-26.491199493408203,48 -48,26.491199493408203 -48,0 C-48,-26.491199493408203 -26.491199493408203,-48 0,-48z"></path>
            </g>
        </g>
        <g clip-path="url(#__lottie_element_62)" transform="matrix(0,0,0,0,376.654052734375,2948.238037109375)"
           opacity="1" style="display: block;">
            <g mask="url(#__lottie_element_63)">
                <g transform="matrix(1,0,0,1,0,0)" opacity="1" style="display: block;">
                    <rect width="1920" height="1080" fill="#ffffff"></rect>
                </g>
            </g>
        </g>
        <g transform="matrix(0,0,0,0,484.654052734375,3345.488037109375)" opacity="1" style="display: block;">
            <g opacity="1" transform="matrix(1,0,0,1,-20,76)">
                <path fill="rgb(249,171,0)" fill-opacity="1"
                      d=" M0,-48 C26.491199493408203,-48 48,-26.491199493408203 48,0 C48,26.491199493408203 26.491199493408203,48 0,48 C-26.491199493408203,48 -48,26.491199493408203 -48,0 C-48,-26.491199493408203 -26.491199493408203,-48 0,-48z"></path>
                <path stroke-linecap="butt" stroke-linejoin="miter" fill-opacity="0" stroke-miterlimit="4"
                      stroke="rgb(255,255,255)" stroke-opacity="1" stroke-width="5"
                      d=" M0,-48 C26.491199493408203,-48 48,-26.491199493408203 48,0 C48,26.491199493408203 26.491199493408203,48 0,48 C-26.491199493408203,48 -48,26.491199493408203 -48,0 C-48,-26.491199493408203 -26.491199493408203,-48 0,-48z"></path>
            </g>
        </g>
        <g clip-path="url(#__lottie_element_52)" transform="matrix(0,0,0,0,484.654052734375,3345.488037109375)"
           opacity="1" style="display: block;">
            <g mask="url(#__lottie_element_53)">
                <g transform="matrix(1,0,0,1,0,0)" opacity="1" style="display: block;">
                    <rect width="1920" height="1080" fill="#ffffff"></rect>
                </g>
            </g>
        </g>
        <g transform="matrix(0,0,0,0,351.654052734375,3706.488037109375)" opacity="1" style="display: block;">
            <g opacity="1" transform="matrix(1,0,0,1,-20,76)">
                <path fill="rgb(66,133,244)" fill-opacity="1"
                      d=" M0,-48 C26.491199493408203,-48 48,-26.491199493408203 48,0 C48,26.491199493408203 26.491199493408203,48 0,48 C-26.491199493408203,48 -48,26.491199493408203 -48,0 C-48,-26.491199493408203 -26.491199493408203,-48 0,-48z"></path>
                <path stroke-linecap="butt" stroke-linejoin="miter" fill-opacity="0" stroke-miterlimit="4"
                      stroke="rgb(255,255,255)" stroke-opacity="1" stroke-width="5"
                      d=" M0,-48 C26.491199493408203,-48 48,-26.491199493408203 48,0 C48,26.491199493408203 26.491199493408203,48 0,48 C-26.491199493408203,48 -48,26.491199493408203 -48,0 C-48,-26.491199493408203 -26.491199493408203,-48 0,-48z"></path>
            </g>
        </g>
        <g clip-path="url(#__lottie_element_42)" transform="matrix(0,0,0,0,351.654052734375,3706.488037109375)"
           opacity="1" style="display: block;">
            <g clip-path="url(#__lottie_element_43)">
                <g transform="matrix(1,0,0,1,0,0)" opacity="1" style="display: block;">
                    <rect width="1920" height="1080" fill="#ffffff"></rect>
                </g>
            </g>
        </g>
        <g transform="matrix(0,0,0,0,278.904052734375,4003.238037109375)" opacity="1" style="display: block;">
            <g opacity="1" transform="matrix(1,0,0,1,-20,76)">
                <path fill="rgb(52,168,83)" fill-opacity="1"
                      d=" M0,-48 C26.491199493408203,-48 48,-26.491199493408203 48,0 C48,26.491199493408203 26.491199493408203,48 0,48 C-26.491199493408203,48 -48,26.491199493408203 -48,0 C-48,-26.491199493408203 -26.491199493408203,-48 0,-48z"></path>
                <path stroke-linecap="butt" stroke-linejoin="miter" fill-opacity="0" stroke-miterlimit="4"
                      stroke="rgb(255,255,255)" stroke-opacity="1" stroke-width="5"
                      d=" M0,-48 C26.491199493408203,-48 48,-26.491199493408203 48,0 C48,26.491199493408203 26.491199493408203,48 0,48 C-26.491199493408203,48 -48,26.491199493408203 -48,0 C-48,-26.491199493408203 -26.491199493408203,-48 0,-48z"></path>
            </g>
        </g>
        <g clip-path="url(#__lottie_element_32)" transform="matrix(0,0,0,0,278.904052734375,4003.238037109375)"
           opacity="1" style="display: block;">
            <g mask="url(#__lottie_element_33)">
                <g transform="matrix(1,0,0,1,0,0)" opacity="1" style="display: block;">
                    <rect width="1920" height="1080" fill="#ffffff"></rect>
                </g>
            </g>
        </g>
        <g transform="matrix(0,0,0,0,454.904052734375,3127.988037109375)" opacity="1" style="display: block;">
            <g opacity="1" transform="matrix(1,0,0,1,-20,76)">
                <path fill="rgb(249,171,0)" fill-opacity="1"
                      d=" M0,-48 C26.491199493408203,-48 48,-26.491199493408203 48,0 C48,26.491199493408203 26.491199493408203,48 0,48 C-26.491199493408203,48 -48,26.491199493408203 -48,0 C-48,-26.491199493408203 -26.491199493408203,-48 0,-48z"></path>
                <path stroke-linecap="butt" stroke-linejoin="miter" fill-opacity="0" stroke-miterlimit="4"
                      stroke="rgb(255,255,255)" stroke-opacity="1" stroke-width="5"
                      d=" M0,-48 C26.491199493408203,-48 48,-26.491199493408203 48,0 C48,26.491199493408203 26.491199493408203,48 0,48 C-26.491199493408203,48 -48,26.491199493408203 -48,0 C-48,-26.491199493408203 -26.491199493408203,-48 0,-48z"></path>
            </g>
        </g>
        <g transform="matrix(0,0,0,0,460.904052734375,3475.988037109375)" opacity="1" style="display: block;">
            <g opacity="1" transform="matrix(1,0,0,1,-20,76)">
                <path fill="rgb(52,168,83)" fill-opacity="1"
                      d=" M0,-48 C26.491199493408203,-48 48,-26.491199493408203 48,0 C48,26.491199493408203 26.491199493408203,48 0,48 C-26.491199493408203,48 -48,26.491199493408203 -48,0 C-48,-26.491199493408203 -26.491199493408203,-48 0,-48z"></path>
                <path stroke-linecap="butt" stroke-linejoin="miter" fill-opacity="0" stroke-miterlimit="4"
                      stroke="rgb(255,255,255)" stroke-opacity="1" stroke-width="5"
                      d=" M0,-48 C26.491199493408203,-48 48,-26.491199493408203 48,0 C48,26.491199493408203 26.491199493408203,48 0,48 C-26.491199493408203,48 -48,26.491199493408203 -48,0 C-48,-26.491199493408203 -26.491199493408203,-48 0,-48z"></path>
            </g>
        </g>
        <g transform="matrix(0,0,0,0,419.904052734375,3571.988037109375)" opacity="1" style="display: block;">
            <g opacity="1" transform="matrix(1,0,0,1,-20,76)">
                <path fill="rgb(52,168,83)" fill-opacity="1"
                      d=" M0,-48 C26.491199493408203,-48 48,-26.491199493408203 48,0 C48,26.491199493408203 26.491199493408203,48 0,48 C-26.491199493408203,48 -48,26.491199493408203 -48,0 C-48,-26.491199493408203 -26.491199493408203,-48 0,-48z"></path>
                <path stroke-linecap="butt" stroke-linejoin="miter" fill-opacity="0" stroke-miterlimit="4"
                      stroke="rgb(255,255,255)" stroke-opacity="1" stroke-width="5"
                      d=" M0,-48 C26.491199493408203,-48 48,-26.491199493408203 48,0 C48,26.491199493408203 26.491199493408203,48 0,48 C-26.491199493408203,48 -48,26.491199493408203 -48,0 C-48,-26.491199493408203 -26.491199493408203,-48 0,-48z"></path>
            </g>
        </g>
        <g transform="matrix(0,0,0,0,314.904052734375,3793.238037109375)" opacity="1" style="display: block;">
            <g opacity="1" transform="matrix(1,0,0,1,-20,76)">
                <path fill="rgb(52,168,83)" fill-opacity="1"
                      d=" M0,-48 C26.491199493408203,-48 48,-26.491199493408203 48,0 C48,26.491199493408203 26.491199493408203,48 0,48 C-26.491199493408203,48 -48,26.491199493408203 -48,0 C-48,-26.491199493408203 -26.491199493408203,-48 0,-48z"></path>
                <path stroke-linecap="butt" stroke-linejoin="miter" fill-opacity="0" stroke-miterlimit="4"
                      stroke="rgb(255,255,255)" stroke-opacity="1" stroke-width="5"
                      d=" M0,-48 C26.491199493408203,-48 48,-26.491199493408203 48,0 C48,26.491199493408203 26.491199493408203,48 0,48 C-26.491199493408203,48 -48,26.491199493408203 -48,0 C-48,-26.491199493408203 -26.491199493408203,-48 0,-48z"></path>
            </g>
        </g>
        <g transform="matrix(0,0,0,0,296.904052734375,3854.238037109375)" opacity="1" style="display: block;">
            <g opacity="1" transform="matrix(1,0,0,1,-20,76)">
                <path fill="rgb(66,133,244)" fill-opacity="1"
                      d=" M0,-48 C26.491199493408203,-48 48,-26.491199493408203 48,0 C48,26.491199493408203 26.491199493408203,48 0,48 C-26.491199493408203,48 -48,26.491199493408203 -48,0 C-48,-26.491199493408203 -26.491199493408203,-48 0,-48z"></path>
                <path stroke-linecap="butt" stroke-linejoin="miter" fill-opacity="0" stroke-miterlimit="4"
                      stroke="rgb(255,255,255)" stroke-opacity="1" stroke-width="5"
                      d=" M0,-48 C26.491199493408203,-48 48,-26.491199493408203 48,0 C48,26.491199493408203 26.491199493408203,48 0,48 C-26.491199493408203,48 -48,26.491199493408203 -48,0 C-48,-26.491199493408203 -26.491199493408203,-48 0,-48z"></path>
            </g>
        </g>
        <g transform="matrix(0,0,0,0,284.904052734375,3922.238037109375)" opacity="1" style="display: block;">
            <g opacity="1" transform="matrix(1,0,0,1,-20,76)">
                <path fill="rgb(66,133,244)" fill-opacity="1"
                      d=" M0,-48 C26.491199493408203,-48 48,-26.491199493408203 48,0 C48,26.491199493408203 26.491199493408203,48 0,48 C-26.491199493408203,48 -48,26.491199493408203 -48,0 C-48,-26.491199493408203 -26.491199493408203,-48 0,-48z"></path>
                <path stroke-linecap="butt" stroke-linejoin="miter" fill-opacity="0" stroke-miterlimit="4"
                      stroke="rgb(255,255,255)" stroke-opacity="1" stroke-width="5"
                      d=" M0,-48 C26.491199493408203,-48 48,-26.491199493408203 48,0 C48,26.491199493408203 26.491199493408203,48 0,48 C-26.491199493408203,48 -48,26.491199493408203 -48,0 C-48,-26.491199493408203 -26.491199493408203,-48 0,-48z"></path>
            </g>
        </g>
        <g transform="matrix(0,0,0,0,301.904052734375,4181.48828125)" opacity="1" style="display: block;">
            <g opacity="1" transform="matrix(1,0,0,1,-20,76)">
                <path fill="rgb(66,133,244)" fill-opacity="1"
                      d=" M0,-48 C26.491199493408203,-48 48,-26.491199493408203 48,0 C48,26.491199493408203 26.491199493408203,48 0,48 C-26.491199493408203,48 -48,26.491199493408203 -48,0 C-48,-26.491199493408203 -26.491199493408203,-48 0,-48z"></path>
                <path stroke-linecap="butt" stroke-linejoin="miter" fill-opacity="0" stroke-miterlimit="4"
                      stroke="rgb(255,255,255)" stroke-opacity="1" stroke-width="5"
                      d=" M0,-48 C26.491199493408203,-48 48,-26.491199493408203 48,0 C48,26.491199493408203 26.491199493408203,48 0,48 C-26.491199493408203,48 -48,26.491199493408203 -48,0 C-48,-26.491199493408203 -26.491199493408203,-48 0,-48z"></path>
            </g>
        </g>
        <g transform="matrix(0,0,0,0,324.904052734375,4278.48828125)" opacity="1" style="display: block;">
            <g opacity="1" transform="matrix(1,0,0,1,-20,76)">
                <path fill="rgb(52,168,83)" fill-opacity="1"
                      d=" M0,-48 C26.491199493408203,-48 48,-26.491199493408203 48,0 C48,26.491199493408203 26.491199493408203,48 0,48 C-26.491199493408203,48 -48,26.491199493408203 -48,0 C-48,-26.491199493408203 -26.491199493408203,-48 0,-48z"></path>
                <path stroke-linecap="butt" stroke-linejoin="miter" fill-opacity="0" stroke-miterlimit="4"
                      stroke="rgb(255,255,255)" stroke-opacity="1" stroke-width="5"
                      d=" M0,-48 C26.491199493408203,-48 48,-26.491199493408203 48,0 C48,26.491199493408203 26.491199493408203,48 0,48 C-26.491199493408203,48 -48,26.491199493408203 -48,0 C-48,-26.491199493408203 -26.491199493408203,-48 0,-48z"></path>
            </g>
        </g>
    </g>
</svg>
