<!--<svg xmlns="http://www.w3.org/2000/svg" xmlns:xlink="http://www.w3.org/1999/xlink" viewBox="0 0 1920 1080" width="1920"-->
<!--     height="1080" preserveAspectRatio="xMidYMid meet"-->
<!--     style="width: 100%; height: 100%; transform: translate3d(0px, 0px, 0px); content-visibility: visible;">-->
<!--    <defs>-->
<!--        <clipPath id="__lottie_element_2">-->
<!--            <rect width="1920" height="1080" x="0" y="0"></rect>-->
<!--        </clipPath>-->
<!--        <mask id="__lottie_element_8">-->
<!--            <path fill="#ffffff" clip-rule="nonzero"-->
<!--                  d=" M1382.7760009765625,532.5549926757812 C1382.7760009765625,532.5549926757812 1399.2359619140625,532.5549926757812 1399.2359619140625,532.5549926757812 C1399.2359619140625,532.5549926757812 1399.2359619140625,537.6199951171875 1399.2359619140625,537.6199951171875 C1399.2359619140625,537.6199951171875 1382.7760009765625,537.6199951171875 1382.7760009765625,537.6199951171875 C1382.7760009765625,537.6199951171875 1382.7760009765625,532.5549926757812 1382.7760009765625,532.5549926757812"-->
<!--                  fill-opacity="1"></path>-->
<!--            <path fill="#ffffff" clip-rule="nonzero"-->
<!--                  d=" M1382.7760009765625,539.5659790039062 C1382.7760009765625,539.5659790039062 1408.0140380859375,539.5659790039062 1408.0140380859375,539.5659790039062 C1408.0140380859375,539.5659790039062 1408.0140380859375,541.6690063476562 1408.0140380859375,541.6690063476562 C1408.0140380859375,541.6690063476562 1382.7760009765625,541.6690063476562 1382.7760009765625,541.6690063476562 C1382.7760009765625,541.6690063476562 1382.7760009765625,539.5659790039062 1382.7760009765625,539.5659790039062"-->
<!--                  fill-opacity="1"></path>-->
<!--            <path fill="#ffffff" clip-rule="nonzero"-->
<!--                  d=" M1408.0140380859375,543.77197265625 C1408.0140380859375,543.77197265625 1382.7760009765625,543.77197265625 1382.7760009765625,543.77197265625 C1382.7760009765625,543.77197265625 1382.7760009765625,545.875 1382.7760009765625,545.875 C1382.7760009765625,545.875 1408.0140380859375,545.875 1408.0140380859375,545.875 C1408.0140380859375,545.875 1408.0140380859375,543.77197265625 1408.0140380859375,543.77197265625"-->
<!--                  fill-opacity="1"></path>-->
<!--            <path fill="#ffffff" clip-rule="nonzero"-->
<!--                  d=" M1405.5679931640625,527.4910278320312 C1405.5679931640625,527.4910278320312 1407.137939453125,530.656005859375 1407.137939453125,530.656005859375 C1407.137939453125,530.656005859375 1410.633056640625,531.1749877929688 1410.633056640625,531.1749877929688 C1410.633056640625,531.1749877929688 1408.0999755859375,533.6439819335938 1408.0999755859375,533.6439819335938 C1408.0999755859375,533.6439819335938 1408.6949462890625,537.1259765625 1408.6949462890625,537.1259765625 C1408.6949462890625,537.1259765625 1405.5679931640625,535.47998046875 1405.5679931640625,535.47998046875 C1405.5679931640625,535.47998046875 1402.4410400390625,537.1259765625 1402.4410400390625,537.1259765625 C1402.4410400390625,537.1259765625 1403.0360107421875,533.6439819335938 1403.0360107421875,533.6439819335938 C1403.0360107421875,533.6439819335938 1400.5030517578125,531.1749877929688 1400.5030517578125,531.1749877929688 C1400.5030517578125,531.1749877929688 1403.998046875,530.656005859375 1403.998046875,530.656005859375 C1403.998046875,530.656005859375 1405.5679931640625,527.4910278320312 1405.5679931640625,527.4910278320312"-->
<!--                  fill-opacity="1"></path>-->
<!--        </mask>-->
<!--        <clipPath id="__lottie_element_14">-->
<!--            <path fill="#ffffff" clip-rule="nonzero"-->
<!--                  d=" M1135.531005859375,551.5 C1134.1669921875,551.5 1133.06201171875,552.6060180664062 1133.06201171875,553.968994140625 C1133.06201171875,555.3319702148438 1134.1669921875,556.43798828125 1135.531005859375,556.43798828125 C1136.89501953125,556.43798828125 1138,555.3319702148438 1138,553.968994140625 C1138,552.6060180664062 1136.89501953125,551.5 1135.531005859375,551.5"-->
<!--                  fill-opacity="1"></path>-->
<!--        </clipPath>-->
<!--        <clipPath id="__lottie_element_17">-->
<!--            <path fill="#ffffff" clip-rule="nonzero"-->
<!--                  d=" M1085.43994140625,536.322021484375 C1081.532958984375,536.322021484375 1079.1590576171875,539.6060180664062 1079.1590576171875,542.6489868164062 C1079.1590576171875,544.0910034179688 1079.177978515625,545.177001953125 1079.177978515625,545.177001953125 C1079.177978515625,545.177001953125 1081.7060546875,545.177001953125 1081.7060546875,545.177001953125 C1081.7060546875,545.177001953125 1081.7060546875,544.0339965820312 1081.7060546875,542.6729736328125 C1081.7060546875,541.31201171875 1082.5770263671875,538.8790283203125 1085.501953125,538.8790283203125 C1088.3470458984375,538.8790283203125 1089.2760009765625,541.4910278320312 1089.2760009765625,542.6920166015625 C1089.2760009765625,543.8930053710938 1089.2120361328125,545.1220092773438 1089.2120361328125,545.1220092773438 C1089.2120361328125,545.1220092773438 1077.8160400390625,545.2349853515625 1077.8160400390625,545.2349853515625 C1077.8160400390625,545.2349853515625 1077.76904296875,547.6170043945312 1077.76904296875,547.6170043945312 C1077.76904296875,547.6170043945312 1092.9410400390625,547.6729736328125 1092.9410400390625,547.6729736328125 C1092.9410400390625,547.6729736328125 1092.998046875,560.18701171875 1092.998046875,560.18701171875 C1092.998046875,560.18701171875 1077.8470458984375,560.2210083007812 1077.8470458984375,560.2210083007812 C1077.8470458984375,560.2210083007812 1077.802001953125,547.6190185546875 1077.802001953125,547.6190185546875 C1077.802001953125,547.6190185546875 1077.762939453125,545.2260131835938 1077.762939453125,545.2260131835938 C1077.762939453125,545.2260131835938 1075.404052734375,545.2039794921875 1075.404052734375,547.6439819335938 C1075.404052734375,551.3270263671875 1075.404052734375,558.8690185546875 1075.404052734375,560.22998046875 C1075.404052734375,561.5910034179688 1076.76904296875,562.7579956054688 1077.970947265625,562.7579956054688 C1079.1729736328125,562.7579956054688 1091.27099609375,562.7579956054688 1093.031982421875,562.7579956054688 C1094.4229736328125,562.7579956054688 1095.4639892578125,561.7139892578125 1095.4639892578125,560.1680297851562 C1095.4639892578125,558.4860229492188 1095.5870361328125,549.0050048828125 1095.5870361328125,547.7239990234375 C1095.5870361328125,546.4310302734375 1094.66796875,545.1610107421875 1093.072021484375,545.1610107421875 C1092.875,545.1610107421875 1091.739990234375,545.2230224609375 1091.739990234375,545.2230224609375 C1091.739990234375,545.2230224609375 1091.7030029296875,543.3610229492188 1091.7030029296875,542.6480102539062 C1091.7030029296875,539.739990234375 1089.696044921875,536.322021484375 1085.43994140625,536.322021484375"-->
<!--                  fill-opacity="1"></path>-->
<!--        </clipPath>-->
<!--        <mask id="__lottie_element_23">-->
<!--            <path fill="#ffffff" clip-rule="nonzero"-->
<!--                  d=" M932.2150268554688,614.2420043945312 C932.2150268554688,614.2420043945312 930.552978515625,616.7420043945312 930.552978515625,616.7420043945312 C931.35498046875,618.3410034179688 931.7470092773438,620.1129760742188 931.6950073242188,621.9010009765625 C931.6430053710938,623.6890258789062 931.1489868164062,625.43701171875 930.2559814453125,626.9860229492188 C930.2559814453125,626.9860229492188 911.5260009765625,626.9860229492188 911.5260009765625,626.9860229492188 C910.364990234375,624.9730224609375 909.885009765625,622.6380004882812 910.155029296875,620.3300170898438 C910.4249877929688,618.02197265625 911.4320068359375,615.8619995117188 913.0260009765625,614.1710205078125 C914.6199951171875,612.47998046875 916.7160034179688,611.3480224609375 919.0040283203125,610.9420166015625 C921.2919921875,610.5360107421875 923.6510009765625,610.8779907226562 925.72900390625,611.9180297851562 C925.72900390625,611.9180297851562 928.22900390625,610.2559814453125 928.22900390625,610.2559814453125 C925.6840209960938,608.6240234375 922.6640014648438,607.8930053710938 919.6539916992188,608.1790161132812 C916.6439819335938,608.4650268554688 913.8179931640625,609.7529907226562 911.6259765625,611.8359985351562 C909.4340209960938,613.9190063476562 908.0029907226562,616.676025390625 907.5640258789062,619.6680297851562 C907.125,622.6599731445312 907.7020263671875,625.7119750976562 909.2020263671875,628.3369750976562 C909.43798828125,628.7459716796875 909.7760009765625,629.0850219726562 910.1840209960938,629.322021484375 C910.5919799804688,629.5590209960938 911.0540161132812,629.6849975585938 911.5260009765625,629.68798828125 C911.5260009765625,629.68798828125 930.2420043945312,629.68798828125 930.2420043945312,629.68798828125 C930.718017578125,629.6900024414062 931.18701171875,629.5659790039062 931.5999755859375,629.3289794921875 C932.0130004882812,629.0919799804688 932.3560180664062,628.7490234375 932.593994140625,628.3369750976562 C933.8389892578125,626.1799926757812 934.4630126953125,623.7219848632812 934.3989868164062,621.2319946289062 C934.3350219726562,618.7420043945312 933.583984375,616.3189697265625 932.22900390625,614.22900390625 C932.22900390625,614.22900390625 932.2150268554688,614.2420043945312 932.2150268554688,614.2420043945312"-->
<!--                  fill-opacity="1"></path>-->
<!--            <path fill="#ffffff" clip-rule="nonzero"-->
<!--                  d=" M918.9860229492188,623.4860229492188 C919.2369995117188,623.7369995117188 919.5349731445312,623.9359741210938 919.8629760742188,624.072021484375 C920.1909790039062,624.2080078125 920.5430297851562,624.2789916992188 920.8980102539062,624.2789916992188 C921.2529907226562,624.2789916992188 921.60498046875,624.2080078125 921.9329833984375,624.072021484375 C922.260986328125,623.9359741210938 922.5590209960938,623.7369995117188 922.8099975585938,623.4860229492188 C922.8099975585938,623.4860229492188 930.4580078125,612.0130004882812 930.4580078125,612.0130004882812 C930.4580078125,612.0130004882812 918.9860229492188,619.6610107421875 918.9860229492188,619.6610107421875 C918.7349853515625,619.9119873046875 918.5349731445312,620.2109985351562 918.3989868164062,620.5390014648438 C918.2630004882812,620.8670043945312 918.1929931640625,621.218994140625 918.1929931640625,621.573974609375 C918.1929931640625,621.9290161132812 918.2630004882812,622.281005859375 918.3989868164062,622.6090087890625 C918.5349731445312,622.93701171875 918.7349853515625,623.2349853515625 918.9860229492188,623.4860229492188 C918.9860229492188,623.4860229492188 918.9860229492188,623.4860229492188 918.9860229492188,623.4860229492188"-->
<!--                  fill-opacity="1"></path>-->
<!--        </mask>-->
<!--        <clipPath id="__lottie_element_29">-->
<!--            <path fill="#ffffff" clip-rule="nonzero"-->
<!--                  d=" M459.06201171875,486.1390075683594 C456.62701416015625,486.1390075683594 452.8179931640625,486.1390075683594 452.8179931640625,486.1390075683594 C452.8179931640625,486.1390075683594 452.8240051269531,491.6340026855469 452.8240051269531,491.6340026855469 C452.8240051269531,491.6340026855469 459.2550048828125,491.6340026855469 459.2550048828125,491.6340026855469 C459.2550048828125,491.6340026855469 459.2550048828125,510.4909973144531 459.2550048828125,510.4909973144531 C459.2550048828125,510.4909973144531 446.01800537109375,510.4909973144531 446.01800537109375,510.4909973144531 C446.01800537109375,510.4909973144531 446.01800537109375,491.6340026855469 446.01800537109375,491.6340026855469 C446.01800537109375,491.6340026855469 452.8240051269531,491.6340026855469 452.8240051269531,491.6340026855469 C452.8240051269531,491.6340026855469 452.8179931640625,486.1390075683594 452.8179931640625,486.1390075683594 C452.8179931640625,486.1390075683594 446.510986328125,486.1390075683594 445.6990051269531,486.1390075683594 C444.8869934082031,486.1390075683594 443.2080078125,486.70098876953125 443.2080078125,488.9490051269531 C443.2080078125,491.1969909667969 443.1820068359375,513.0869750976562 443.1820068359375,513.0869750976562 C443.1820068359375,513.0869750976562 443.4580078125,515.7990112304688 445.45599365234375,515.7990112304688 C447.4540100097656,515.7990112304688 459.2550048828125,515.7990112304688 459.2550048828125,515.7990112304688 C459.2550048828125,515.7990112304688 461.94000244140625,515.3619995117188 461.94000244140625,513.052001953125 C461.94000244140625,510.74200439453125 461.94000244140625,488.8240051269531 461.94000244140625,488.8240051269531 C461.94000244140625,488.8240051269531 461.49700927734375,486.1390075683594 459.06201171875,486.1390075683594"-->
<!--                  fill-opacity="1"></path>-->
<!--        </clipPath>-->
<!--    </defs>-->
<!--    <g clip-path="url(#__lottie_element_2)">-->
<!--        <g transform="matrix(1,0,0,1,2842.5,538.75)" opacity="1" style="display: block;">-->
<!--            <g opacity="1" transform="matrix(1,0,0,1,0,0)">-->
<!--                <path stroke-linecap="butt" stroke-linejoin="miter" fill-opacity="0" stroke-miterlimit="4"-->
<!--                      stroke="rgb(0,0,0)" stroke-opacity="1" stroke-width="1.5" d="M0 0"></path>-->
<!--            </g>-->
<!--        </g>-->
<!--        <g transform="matrix(1,0,0,1,960,540)" opacity="1" style="display: block;">-->
<!--            <g opacity="1" transform="matrix(1,0,0,1,-0.25,0)">-->
<!--                <path stroke-linecap="butt" stroke-linejoin="miter" fill-opacity="0" stroke-miterlimit="4"-->
<!--                      stroke="rgb(0,0,0)" stroke-opacity="1" stroke-width="1.5"-->
<!--                      d=" M0,-50.5 C97.625,-50.5 195.25,-50.5 195.25,-50.5 C223.12095642089844,-50.5 245.75,-27.87095069885254 245.75,0 C245.75,0 245.75,0 245.75,0 C245.75,0 245.75,0 245.75,0 C245.75,27.87095069885254 223.12095642089844,50.5 195.25,50.5 C195.25,50.5 -195.25,50.5 -195.25,50.5 C-223.12095642089844,50.5 -245.75,27.87095069885254 -245.75,0 C-245.75,0 -245.75,0 -245.75,0 C-245.75,-27.87095069885254 -223.12095642089844,-50.5 -195.25,-50.5 C-195.25,-50.5 -97.625,-50.5 0,-50.5"></path>-->
<!--            </g>-->
<!--        </g>-->
<!--    </g>-->
<!--</svg>-->

<svg xmlns="http://www.w3.org/2000/svg" xmlns:xlink="http://www.w3.org/1999/xlink" viewBox="0 0 1920 1080" width="1920"
     height="1080" preserveAspectRatio="xMidYMid meet"
     style="width: 100%; height: 100%; transform: translate3d(0px, 0px, 0px); content-visibility: visible;">
    <g clip-path="url(#__lottie_element_2)">
        <g transform="matrix(1,0,0,1,2842.5,538.75)" opacity="1" style="display: block;">
            <g opacity="1" transform="matrix(1,0,0,1,0,0)">
                <path stroke-linecap="butt" stroke-linejoin="miter" fill-opacity="0" stroke-miterlimit="4"
                      stroke="rgb(0,0,0)" stroke-opacity="1" stroke-width="1.5" d="M0 0"></path>
            </g>
        </g>
        <g transform="matrix(1,0,0,1,960,540)" opacity="1" style="display: block;">
            <g opacity="1" transform="matrix(1,0,0,1,-0.25,0)">
                <path stroke-linecap="butt" stroke-linejoin="miter" fill-opacity="0" stroke-miterlimit="4"
                      stroke="rgb(0,0,0)" stroke-opacity="1" stroke-width="1.5"
                      d=" M0,-50.5 C97.625,-50.5 195.25,-50.5 195.25,-50.5 C223.12095642089844,-50.5 245.75,-27.87095069885254 245.75,0 C245.75,0 245.75,0 245.75,0 C245.75,0 245.75,0 245.75,0 C245.75,27.87095069885254 223.12095642089844,50.5 195.25,50.5 C195.25,50.5 -195.25,50.5 -195.25,50.5 C-223.12095642089844,50.5 -245.75,27.87095069885254 -245.75,0 C-245.75,0 -245.75,0 -245.75,0 C-245.75,-27.87095069885254 -223.12095642089844,-50.5 -195.25,-50.5 C-195.25,-50.5 -97.625,-50.5 0,-50.5"></path>
            </g>
        </g>
    </g>
</svg>
